<mxfile host="app.diagrams.net" modified="2023-10-08T18:20:17.462Z" agent="Mozilla/5.0 (Windows NT 10.0; Win64; x64) AppleWebKit/537.36 (KHTML, like Gecko) Chrome/117.0.0.0 Safari/537.36" version="22.0.4" etag="OY6eFcLM33MoUVzyHcj3" type="github">
  <diagram name="Trang-1" id="huWucCRd_4m_XqeL191E">
    <mxGraphModel>
      <root>
        <mxCell id="0" />
        <mxCell id="1" parent="0" />
      </root>
    </mxGraphModel>
  </diagram>
</mxfile>
